<svg xmlns="http://www.w3.org/2000/svg" width="2500" height="1309" version="1.1" viewBox="0 0 2500 1309">
  <path d="M839,547.9c-8.6,145.6-77.1,171.2-154.1,179.8h-102.7l42.8-256.9h111.3c59.9,0,102.7,25.7,102.7,77.1ZM1883.6,470.9h-111.3l-42.8,256.9h102.8c77.1-8.6,145.5-34.2,154.1-179.8,0-51.4-42.8-77.1-102.7-77.1h0ZM2500,650.7c0,359.4-559.6,650.7-1250,650.7S0,1010,0,650.7,559.6,0,1250,0s1250,291.3,1250,650.7ZM1010.3,539.4c0-119.9-68.5-188.4-205.5-196.9h-316.8l-137,693.5h162.7l34.2-179.8h154.1c145.6,8.6,308.2-111.3,308.2-316.8h0ZM1398,539.4l-59.9,316.8h171.2l59.9-351c17.1-85.6-34.2-154.1-171.2-162.7h-154.1l34.2-179.8h-162.7l-137,693.5h162.7l77.1-385.3h128.4c59.9,0,59.9,25.7,51.4,68.5ZM2157.5,539.4c0-119.9-68.5-188.4-205.5-196.9h-316.8l-137,693.5h162.7l34.2-179.8h154.1c145.5,8.6,308.2-111.3,308.2-316.8h.1Z"/>
</svg>