<svg xmlns="http://www.w3.org/2000/svg" width="256" height="288" version="1.1" viewBox="0 0 256 288">
  <path d="M255.6,84.5c0-4.8-1-9.1-3.1-12.8-2.1-3.6-5.1-6.6-9.2-9-34-19.6-68.1-39.2-102.1-58.8-9.2-5.3-18.1-5.1-27.2.3C100.5,12.2,32.7,51,12.4,62.7c-8.3,4.8-12.4,12.2-12.4,21.7v118.4c0,4.7,1,8.9,3,12.5,2.1,3.7,5.2,6.8,9.4,9.3,20.2,11.7,88,50.5,101.6,58.5,9.1,5.4,18,5.6,27.2.3,34-19.6,68.1-39.2,102.1-58.8,4.2-2.4,7.3-5.5,9.4-9.3,2-3.6,3-7.8,3-12.5v-118.3h0ZM129.5,238.6h-1.1c-35.3,0-66-19.2-82.4-47.7-8-13.9-12.6-30.1-12.6-47.3,0-52.5,42.5-95,95-95s65.6,19,82.1,47.2h0l.2.3s-.1-.2-.2-.3l-41.3,23.8c-8.1-13.8-23.1-23.1-40.2-23.3h-.5c-26.1,0-47.3,21.2-47.3,47.3s2.3,16.6,6.2,23.5c8.2,14.2,23.5,23.8,41.1,23.8s33.1-9.7,41.2-24.1l-.2.3,41.3,23.9c-16.3,28.1-46.5,47.2-81.3,47.5h0ZM235.6,136.5h-13.5v13.5h13.5v6.7h-13.5v13.5h-6.7v-13.5h-13.5v13.5h-6.7v-13.5h-13.5v-6.7h13.5v-13.5h-13.5v-6.7h13.5v-13.5h6.7v13.5h13.5v-13.5h6.7v13.5h13.5v6.7ZM201.9,136.5h13.5v13.5h-13.5v-13.5Z"/>
</svg>