<svg xmlns="http://www.w3.org/2000/svg" width="257" height="128" version="1.1" viewBox="0 0 257 128">
  <path d="M1.9,125h21.2V34.9H1.9v90.1ZM12.4,23c6.6,0,11.8-5.1,11.8-11.5S19,0,12.4,0,.7,5.1.7,11.6s5.2,11.5,11.7,11.5h0ZM93.5.3C57.7.3,35.3,24.7,35.3,63.7s22.4,63.3,58.2,63.3,58.2-24.3,58.2-63.3S129.2.3,93.5.3ZM93.5,19c21.8,0,35.8,17.3,35.8,44.7s-13.9,44.6-35.8,44.6-35.8-17.3-35.8-44.6,13.9-44.7,35.8-44.7ZM160.6,90.5c.9,22.6,19.5,36.6,47.7,36.6s48.4-14.6,48.4-37.9-10.5-28.6-35.5-34.3l-14.1-3.2c-15-3.6-21.3-8.3-21.3-16.5s9.4-17,23.2-17,23.6,6.9,24.7,18.4h20.9C254.1,14.9,236.3.3,209.2.3s-45.7,14.7-45.7,36.5,10.7,28.4,33.3,33.6l15.9,3.7c15.5,3.7,21.8,8.8,21.8,17.6s-10.3,17.5-25.1,17.5-26.3-7.4-27.6-18.7h-21.3.1Z"/>
</svg>