<?xml version="1.0" encoding="utf-8"?>
<!-- Generator: Adobe Illustrator 28.2.0, SVG Export Plug-In . SVG Version: 6.00 Build 0)  -->
<svg version="1.1" id="Layer_1" xmlns="http://www.w3.org/2000/svg" xmlns:xlink="http://www.w3.org/1999/xlink" x="0px" y="0px"
	 viewBox="0 0 932.29 452.8" style="enable-background:new 0 0 932.29 452.8;" xml:space="preserve">
<style type="text/css">
	.st0{fill:#078A4E;}
	.st1{fill:#FDFDFD;}
	.st2{fill:#D1D2D4;}
	.st3{fill:#D8E7E1;}
	.st4{fill:#F1F1F1;}
	.st5{fill:#6DBE4D;}
	.st6{fill:#078B50;}
	.st7{fill:#0A8B4D;}
	.st8{fill:#58585A;}
</style>
<g>
	<circle class="st0" cx="226.4" cy="226.4" r="226.4"/>
	<g>
		<path class="st1" d="M21.56,233.55c0.74-4.47,1.45-8.93,2.21-13.4c1.81-10.73,3.64-21.45,5.46-32.18c0.26-1.55,0.53-3.1,0.74-4.65
			c0.14-0.98,0.58-1.3,1.61-1.29c6.66,0.05,13.31,0.07,19.97-0.01c1.31-0.02,1.79,0.47,2.21,1.6c5.47,14.58,10.98,29.14,16.49,43.71
			c0.2,0.53,0.45,1.05,0.8,1.86c2.25-5.62,4.4-10.97,6.54-16.32c3.9-9.77,7.82-19.53,11.67-29.31c0.46-1.16,1.03-1.53,2.27-1.53
			c14.07,0.05,28.15,0.05,42.22,0c1.38-0.01,1.84,0.43,2.19,1.73c3.74,14.09,7.55,28.17,11.34,42.25c0.04,0.16,0.01,0.35,0.01,0.52
			c-0.41,0.58-1,0.74-1.67,0.77c-6.05,0.32-12.1,0.4-18.15,0.72c-0.92,0.05-1.89,0.07-2.58-0.75c-2.09-6.88-4.19-13.75-6.27-20.63
			c-1.11-3.65-2.19-7.31-3.59-10.91c0.41,2.85,0.8,5.7,1.23,8.55c1.11,7.36,2.25,14.73,3.36,22.09c0.06,0.4,0.01,0.81,0.01,1.22
			c-0.42,0.56-1,0.76-1.68,0.76c-1.75,0.01-3.48,0.29-5.22,0.32c-4.42,0.09-8.82,0.45-13.24,0.58c-0.63,0.02-1.14-0.16-1.57-0.6
			c-0.72-2.61-0.7-5.35-1.27-8.33c-1.67,2.96-2.39,6.03-3.98,8.69c-0.49,0.45-1.05,0.72-1.72,0.75c-4.19,0.16-8.36,0.47-12.54,0.73
			c-6.68,0.41-13.36,0.77-20.02,1.33c-1.8,0.15-3.61,0.07-5.4,0.37c-0.89,0.15-1.73-0.11-2.46-0.68c-1.53-3.67-3.07-7.34-4.72-11.3
			c-0.68,4.16-1.31,8.04-1.95,11.93c-0.32,0.45-0.75,0.71-1.31,0.75c-6.35,0.47-12.68,1.15-19.05,1.45
			C22.77,234.36,21.95,234.46,21.56,233.55z"/>
		<path class="st2" d="M371.76,232.5c0.61,1.69,0.21,3.44,0.18,5.15c-0.02,0.9,0.04,1.14,0.93,1.04c0.98-0.11,1.98-0.14,2.97-0.19
			c4.44-0.2,5.37,1.34,7.38,5.09c0.35,0.66,0.44,1.47,0.83,2.1c0.83,1.34,1.86,2.31,3.71,1.97c2.51-0.46,5.09-0.58,7.59-1.1
			c1.7-0.36,2.96-1.63,3.01-3.44c0.05-2.2,1.46-3.35,2.89-4.57c0.47-0.4,0.95-0.72,1.32-1.3c0.55-0.88,1.69-0.67,2.51-0.97
			c1.18-0.43,1.47-0.22,2.15,0.7c1.23,1.66,2.37,1.47,3.15-0.29c1.59-1.33,3.36-0.38,5.01-0.26c2.58,0.18,5.15,0.64,7.74,0.92
			c0.93,0.1,1.64,0.48,2.27,1.11c3.03,7.95,6.05,15.9,9.08,23.86c0.91,2.4,1.78,4.81,2.73,7.2c0.41,1.02,0.16,1.26-0.91,1.25
			c-7.3-0.04-14.61-0.05-21.91,0.01c-1.1,0.01-1.51-0.42-1.85-1.37c-1.52-4.23-3.14-8.41-4.64-12.65c-0.37-1.03-0.81-1.46-1.96-1.45
			c-9.64,0.05-19.28,0.05-28.92,0c-1.14-0.01-1.62,0.4-2.01,1.41c-1.6,4.19-3.32,8.34-4.92,12.54c-0.4,1.05-0.85,1.53-2.09,1.52
			c-9.17-0.07-18.34-0.06-27.52-0.01c-1.18,0.01-1.72-0.32-2.12-1.47c-1.46-4.18-3.08-8.31-4.56-12.49
			c-0.38-1.08-0.87-1.53-2.11-1.52c-9.58,0.06-19.16,0.06-28.74,0c-1.24-0.01-1.7,0.47-2.1,1.54c-1.62,4.25-3.33,8.47-4.99,12.7
			c-0.26,0.66-0.46,1.24-1.41,1.23c-7.71-0.04-15.42-0.02-23.4-0.02c5.68-14.73,11.29-29.28,16.9-43.84
			c1.79-0.76,3.67-0.49,5.5-0.36c4.22,0.29,8.44,0.5,12.66,0.62c1.63,0.05,3.24,0.14,4.78,0.73c0.8,0.63,0.59,1.43,0.36,2.23
			c-0.49,1.74-1.25,3.39-1.8,5.11c-0.38,1.18-0.13,1.77,1.21,1.77c4.6-0.01,9.21,0,13.82,0c1.02,0,1.37-0.37,1-1.4
			c-0.55-1.54-1.07-3.08-1.53-4.65c-0.24-0.79-0.48-1.58,0.23-2.29c0.62-0.44,1.32-0.42,2.02-0.36c6.41,0.54,12.84,0.92,19.26,1.33
			c1.01,0.07,1.92,0.4,2.85,0.72c2.01,5.29,4.02,10.58,6.16,16.2c2.09-5.38,4.05-10.44,6.02-15.5c3.35-0.14,6.64,0.5,9.97,0.73
			C370.99,231.82,371.38,232.14,371.76,232.5z"/>
		<path class="st1" d="M234.72,217.55c-0.85,2.65-1.7,5.3-2.55,7.95c-0.4,0.65-0.97,0.9-1.75,0.88c-6.09-0.2-12.18-0.02-18.28-0.11
			c-0.95-0.01-2.02,0.24-2.7-0.78c1.75-6.14,3.48-12.29,5.26-18.42c2.29-7.87,4.65-15.71,6.89-23.59c0.32-1.12,0.76-1.44,1.89-1.44
			c20.27,0.03,40.54,0.04,60.8-0.01c1.31,0,1.67,0.32,1.65,1.64c-0.08,5.37-0.07,10.75,0,16.12c0.02,1.23-0.32,1.55-1.55,1.54
			c-8.18-0.06-16.35,0-24.53-0.06c-1.3-0.01-1.79,0.23-1.75,1.68c0.11,4.03,0.08,8.06,0.01,12.09c-0.02,1.16,0.33,1.45,1.46,1.44
			c7.42-0.05,14.84,0,22.25-0.05c1.19-0.01,1.63,0.25,1.58,1.52c-0.11,2.97-0.07,5.95-0.08,8.93c-0.5,0.72-1.26,0.8-2.03,0.77
			c-5.42-0.18-10.84-0.22-16.24-0.59c-0.47-0.03-0.93-0.08-1.4-0.07c-8.4,0.18-16.79-0.59-25.19-0.37c-0.47,0.01-0.93-0.03-1.4-0.03
			c-1.39,0.01-1.97-0.63-1.91-2.06c0.09-1.98,0.04-3.97,0-5.95C235.15,218.23,235.48,217.64,234.72,217.55z"/>
		<path class="st1" d="M310.97,228.28c-7.36-0.35-14.71-0.7-22.07-1.06c-0.33-0.02-0.65-0.2-0.97-0.31
			c3.07-8.09,6.12-16.18,9.2-24.26c2.42-6.35,4.9-12.67,7.28-19.03c0.43-1.13,0.93-1.61,2.23-1.59c7.35,0.08,14.71,0.05,22.06,0.02
			c0.94,0,1.58,0.08,1.98,1.15c5.81,15.56,11.66,31.1,17.5,46.64c0.06,0.16,0.06,0.34,0.09,0.52c-1.93,0.69-3.87,0-5.79-0.07
			c-4.1-0.15-8.19-0.6-12.29-0.91c-2.02-0.15-4.04-0.26-6.07-0.39c-1.34-0.33-1.48-1.55-1.82-2.55c-1.6-4.72-3.14-9.46-4.8-14.32
			c-1.63,4.63-3.22,9.11-4.7,13.63C312.47,226.75,312.32,227.97,310.97,228.28z"/>
		<path class="st2" d="M209.44,225.49c6.43,0.01,12.85,0.06,19.28,0.02c1.15-0.01,2.31,0.54,3.45,0
			c-4.66,14.66-9.33,29.31-13.98,43.98c-0.28,0.89-0.64,1.3-1.67,1.3c-7.01-0.05-14.01-0.03-21.02-0.02c-0.76,0-1.28-0.08-1.56-0.98
			c-4.55-14.63-9.14-29.26-13.71-43.88c0.38-0.76,1.11-0.78,1.8-0.8c5.52-0.13,11.03-0.6,16.56-0.38c0.87,0.04,1.77-0.03,2.39,0.78
			c1.41,4.48,2.82,8.95,4.33,13.75C206.76,234.41,208.1,229.95,209.44,225.49z"/>
		<path class="st2" d="M124.89,227.27c7.47-0.25,14.94-0.49,22.41-0.74c1.12,4.06,2.24,8.12,3.36,12.18
			c0.11,0.01,0.22,0.03,0.34,0.04c1.47-4.42,2.94-8.84,4.41-13.26c6.01,0.09,12.01-0.51,18.03-0.41c0.91,0.01,1.91-0.17,2.57,0.75
			c-4.79,14.56-9.59,29.12-14.36,43.69c-0.3,0.91-0.71,1.27-1.72,1.26c-6.95-0.05-13.9-0.03-20.85-0.03c-0.69,0-1.31,0.09-1.6-0.89
			C133.31,255.65,129.09,241.46,124.89,227.27z"/>
		<path class="st1" d="M175.99,225.82c-6.22,0.13-12.45,0.26-18.67,0.36c-0.69,0.01-1.58,0.33-1.92-0.7c2.76-8.5,5.51-17,8.28-25.5
			c1.78-5.47,3.62-10.91,5.35-16.39c0.35-1.09,0.73-1.59,2-1.56c5.14,0.09,10.27,0.06,15.41,0.01c1.01-0.01,1.56,0.21,1.87,1.27
			c4.18,13.84,8.4,27.67,12.61,41.5c0.07,0.22,0.04,0.46,0.06,0.69c-6.92-0.1-13.83,0.25-20.75,0.4c-0.67-1.94-1.34-3.88-2.12-6.11
			C177.34,221.99,176.67,223.91,175.99,225.82z"/>
		<path class="st2" d="M234.72,217.55c0.56-0.25,0.6-0.25,0.61,0.19c0.02,1.98,0.12,3.98-0.02,5.95c-0.12,1.72,0.52,2.15,2.18,2.17
			c8.93,0.06,17.86,0.12,26.78,0.4c6.35,0.2,12.7,0.53,19.05,0.62c0.02,2.45-0.02,4.91,0.07,7.35c0.05,1.15-0.32,1.47-1.46,1.46
			c-7.3-0.05-14.6,0.02-21.9-0.06c-1.49-0.02-1.96,0.28-1.95,1.89c0.08,10.51,0.01,21.02,0.08,31.53c0.01,1.42-0.42,1.72-1.76,1.71
			c-6.48-0.07-12.97-0.09-19.45,0.01c-1.64,0.03-1.89-0.53-1.88-1.99c0.05-12.15,0.04-24.29,0.03-36.44
			c-0.01-4.49-0.07-8.99-0.11-13.48C234.99,218.42,235.11,217.93,234.72,217.55z"/>
		<path class="st1" d="M371.76,232.5c-3.44,0.15-6.83-0.61-10.25-0.71c-0.52-0.02-0.9-0.22-1.05-0.74
			c3.02-7.93,6.03-15.86,9.06-23.78c3.03-7.93,6.11-15.83,9.1-23.78c0.41-1.1,0.9-1.49,2.11-1.47c7.36,0.07,14.72,0.07,22.08,0
			c1.23-0.01,1.71,0.41,2.11,1.49c2.98,8.07,6.03,16.11,9.04,24.17c0.21,0.55,0.79,1.16,0.15,1.75c-0.57,0.53-1.36,0.15-1.78-0.09
			c-2.49-1.4-5.05-1.15-7.64-0.53c-0.44,0.11-0.99,0.21-1.26,0.52c-2,2.28-4.24,1.86-6.34,0.39c-1.95-1.37-3.8-1.11-5.61-0.09
			c-1.21,0.68-1.61,0.12-2.19-0.74c-1.25-1.86-4.33-2.83-6.51-2.18c-0.37,0.11-0.8,0.07-1.2,0.03c-2.12-0.19-3.19,0.59-3.57,2.66
			c-0.12,0.66-0.43,1.32-0.93,1.64c-1.13,0.7-1.27,1.7-1.18,2.84c0.02,0.23,0.04,0.47-0.01,0.7c-0.31,1.52-0.81,2.98,0.42,4.45
			c0.49,0.59,0.8,1.73-0.44,2.27c0.55,2.17-2.35,2.81-2.16,4.83c0.01,0.15-0.1,0.42-0.21,0.46c-2.49,0.79-1.25,2.84-1.5,4.38
			C371.93,231.47,371.84,231.99,371.76,232.5z"/>
		<path class="st2" d="M50.53,231.49c8.35-0.58,16.7-1.28,25.06-1.7c5.69-0.29,11.37-0.93,17.09-0.79
			c-2.65,6.41-5.28,12.82-7.95,19.22c-2.94,7.05-5.92,14.08-8.83,21.15c-0.41,1.01-0.88,1.45-2.02,1.4
			c-2.16-0.1-4.32-0.07-6.48-0.01c-0.87,0.02-1.35-0.22-1.69-1.07c-5.02-12.62-10.07-25.23-15.11-37.85
			C50.55,231.73,50.55,231.61,50.53,231.49z"/>
		<path class="st2" d="M97.92,228.64c7.22-0.55,14.46-0.87,21.7-1.06c0.94,5.99,1.89,11.99,2.8,17.98
			c1.16,7.62,2.28,15.24,3.44,22.85c0.35,2.32,0.38,2.32-2.02,2.32c-6.25,0-12.5-0.05-18.75,0.04c-1.45,0.02-1.99-0.33-2.17-1.83
			c-1.14-9.5-2.4-18.99-3.59-28.49C98.84,236.52,98.39,232.58,97.92,228.64z"/>
		<path class="st2" d="M21.56,233.55c2.86,0.27,5.69-0.29,8.53-0.45c4.59-0.26,9.16-0.92,13.77-0.97c-1.2,8.31-2.4,16.63-3.61,24.94
			c-0.61,4.16-1.27,8.31-1.83,12.47c-0.13,0.98-0.49,1.23-1.43,1.22c-6.78-0.03-13.55-0.05-20.33,0.01
			c-1.28,0.01-1.36-0.41-1.17-1.5c1.97-11.44,3.89-22.89,5.83-34.34C21.4,234.47,21.48,234.01,21.56,233.55z"/>
		<path class="st1" d="M425.39,238.46c-5.01-0.59-10.01-1.18-15.02-1.77c0.96-2.18,2.59-4.06,2.8-6.58
			c0.03-0.36,0.66-0.73,1.08-0.99c0.33-0.21,0.93-0.18,0.97-0.63c0.17-2.02,2.11-3.25,2.32-5.23c0.1-0.94,1.4-1.13,1.27-2.26
			C421.08,226.87,423.53,232.55,425.39,238.46z"/>
		<path class="st3" d="M115.03,194.46c-0.43-0.41-0.79-0.74-0.38-1.1C114.75,193.28,115.06,193.83,115.03,194.46z"/>
		<path class="st0" d="M310.97,228.28c2.14-6.06,4.27-12.13,6.51-18.48c2.29,6.61,4.47,12.9,6.65,19.19
			c0.86,2.53,1.69,5.08,2.58,7.6c0.31,0.88,0.23,1.24-0.83,1.23c-5.6-0.04-11.19-0.05-16.79,0c-1.34,0.01-1.23-0.48-0.89-1.45
			C309.17,233.69,310.05,230.98,310.97,228.28z"/>
	</g>
	<g>
		<path class="st0" d="M522.13,111.83v33.7h-5.18v-18.29L506,144.98h-0.04L495,127.22v18.31h-5.18v-33.7h0.39l15.78,23.98
			l15.76-23.98H522.13z"/>
		<path class="st0" d="M549.23,140.52h-15.61l-2.25,5.01h-5.61l15.51-33.66h0.31l15.51,33.66h-5.61L549.23,140.52z M547.23,136.08
			l-5.79-12.89l-5.81,12.89H547.23z"/>
		<path class="st0" d="M587.27,112.47v33.64h-0.25l-21.1-22.04v21.51h-5.18v-33.6h0.27l21.06,22v-21.51H587.27z"/>
		<path class="st0" d="M620,129.08c0,10.13-6.53,16.45-17,16.45h-9.39v-32.98H603C613.47,112.53,620,118.87,620,129.08z
			 M614.76,129.06c0-7-4.54-11.38-11.79-11.38h-4.21v22.69h4.28C610.24,140.38,614.76,136.02,614.76,129.06z"/>
		<path class="st0" d="M629.92,117.65v8.45h12.48v5.16h-12.48v9.13h14.47v5.16h-19.64v-32.98h19.64v5.1H629.92z"/>
		<path class="st0" d="M669.65,140.38v5.16h-19.89v-32.98h5.18v27.83H669.65z"/>
		<path class="st0" d="M694.82,140.52H679.2l-2.25,5.01h-5.61l15.51-33.66h0.31l15.51,33.66h-5.61L694.82,140.52z M692.81,136.08
			l-5.79-12.89l-5.81,12.89H692.81z"/>
		<path class="st0" d="M487.12,159.54h5.59l6.12,20.36l7.55-18.97h0.2l7.55,18.95l6.1-20.34h5.59l-10.48,33.29h-0.47l-8.45-19.89
			l-8.33,19.89h-0.47L487.12,159.54z"/>
		<path class="st0" d="M544.61,187.51H529l-2.25,5.01h-5.61l15.51-33.66h0.31l15.51,33.66h-5.61L544.61,187.51z M542.6,183.07
			l-5.79-12.89L531,183.07H542.6z"/>
		<path class="st0" d="M553.2,186.73l4.09-2.93c1.47,2.58,4.21,4.05,7.39,4.05c3.7,0,6.51-1.78,6.51-4.3c0-3.05-4.34-4.89-8.18-6.55
			c-3.87-1.72-8.16-3.72-8.16-8.9c0-5.4,4.69-9.17,10.62-9.17c4.71,0,8.23,2.27,9.58,5.89l-3.85,2.66
			c-1.02-2.23-3.29-3.48-5.69-3.48c-3.03,0-5.44,1.88-5.44,4.21c0,2.58,3.05,3.5,7.06,5.22c5.22,2.29,9.27,4.81,9.27,10.01
			c0,5.85-5.07,9.62-11.77,9.62C559.19,193.07,555.08,190.54,553.2,186.73z"/>
		<path class="st0" d="M605.43,159.54v32.98h-5.18v-13.93h-14.28v13.93h-5.16v-32.98h5.16v13.91h14.28v-13.91H605.43z"/>
		<path class="st0" d="M611.77,159.54h5.18v32.98h-5.18V159.54z"/>
		<path class="st0" d="M649.81,159.45v33.64h-0.25l-21.1-22.04v21.51h-5.18v-33.6h0.27l21.06,22v-21.51H649.81z"/>
		<path class="st0" d="M687.47,177.09c0,9.8-7.12,15.98-15.69,15.98c-9.6,0-17.21-7.65-17.21-17c0-9.37,7.65-17.09,17.02-17.09
			c4.15,0.02,8.9,2.03,12.01,5.05l-2.88,4.3c-2.58-2.54-6.06-4.13-9.19-4.13c-6.02,0-11.7,5.03-11.7,11.87
			c0,6.47,5.14,11.79,12.17,11.79c5.67,0,9.92-3.46,9.92-8.49v-0.1h-10.21v-4.75h15.61C687.41,175.27,687.47,176.17,687.47,177.09z"
			/>
		<path class="st0" d="M711.26,164.67h-8.84v27.85h-5.2v-27.85h-8.84v-5.14h22.88V164.67z"/>
		<path class="st0" d="M712.16,176.07c0-9.41,7.65-17.11,17.04-17.11c9.37,0,17.07,7.69,17.07,17.11c0,9.33-7.69,16.98-17.09,16.98
			C719.81,193.05,712.16,185.4,712.16,176.07z M741.03,176.03c0-6.53-5.34-11.85-11.85-11.85s-11.81,5.32-11.81,11.85
			c0,6.49,5.3,11.79,11.81,11.79S741.03,182.52,741.03,176.03z"/>
		<path class="st0" d="M777.53,159.45v33.64h-0.25l-21.1-22.04v21.51h-5.18v-33.6h0.27l21.06,22v-21.51H777.53z"/>
		<path class="st0" d="M495,211.6v8.82h12.48v5.16H495v13.98h-5.18v-33.11h19.64v5.16H495z"/>
		<path class="st0" d="M518.75,211.62v8.45h12.48v5.16h-12.48v9.13h14.47v5.16h-19.64v-32.98h19.64v5.1H518.75z"/>
		<path class="st0" d="M558.48,234.35v5.16h-19.89v-32.98h5.18v27.83H558.48z"/>
		<path class="st0" d="M582.5,234.35v5.16h-19.89v-32.98h5.18v27.83H582.5z"/>
		<path class="st0" d="M583.66,223.06c0-9.41,7.65-17.11,17.04-17.11c9.37,0,17.07,7.69,17.07,17.11c0,9.33-7.69,16.98-17.09,16.98
			C591.31,240.04,583.66,232.39,583.66,223.06z M612.53,223.01c0-6.53-5.34-11.85-11.85-11.85s-11.81,5.32-11.81,11.85
			c0,6.49,5.3,11.79,11.81,11.79S612.53,229.5,612.53,223.01z"/>
		<path class="st0" d="M617.58,206.52h5.59l6.12,20.36l7.55-18.97h0.2l7.55,18.95l6.1-20.34h5.59l-10.48,33.29h-0.47l-8.45-19.89
			l-8.33,19.89h-0.47L617.58,206.52z"/>
		<path class="st0" d="M656.39,233.72l4.09-2.93c1.47,2.58,4.22,4.05,7.39,4.05c3.7,0,6.51-1.78,6.51-4.3
			c0-3.05-4.34-4.89-8.19-6.55c-3.87-1.72-8.16-3.72-8.16-8.9c0-5.4,4.69-9.17,10.62-9.17c4.71,0,8.23,2.27,9.58,5.89l-3.85,2.66
			c-1.02-2.23-3.29-3.48-5.69-3.48c-3.03,0-5.44,1.88-5.44,4.21c0,2.58,3.05,3.5,7.06,5.22c5.22,2.29,9.27,4.81,9.27,10.01
			c0,5.85-5.08,9.62-11.77,9.62C662.39,240.06,658.27,237.52,656.39,233.72z"/>
		<path class="st0" d="M708.63,206.52v32.98h-5.18v-13.93h-14.28v13.93h-5.16v-32.98h5.16v13.91h14.28v-13.91H708.63z"/>
		<path class="st0" d="M714.96,206.52h5.18v32.98h-5.18V206.52z"/>
		<path class="st0" d="M726.48,206.52h11.03c6.38,0,11.6,4.89,11.6,10.89c0,5.87-5.22,10.66-11.6,10.66h-5.85v11.44h-5.18V206.52z
			 M743.94,217.37c0-3.15-2.88-5.71-6.42-5.71h-5.85v11.27l5.85,0.02C741.05,222.97,743.94,220.46,743.94,217.37z"/>
		<path class="st0" d="M786.26,234.49h-15.61l-2.25,5.01h-5.61l15.51-33.66h0.31l15.51,33.66h-5.61L786.26,234.49z M784.26,230.05
			l-5.79-12.89l-5.81,12.89H784.26z"/>
		<path class="st0" d="M817.67,234.35v5.16h-19.89v-32.98h5.18v27.83H817.67z"/>
		<path class="st0" d="M821.49,227.01v-20.48h5.2v20.46c0,4.56,3.21,7.9,7.24,7.9s7.28-3.34,7.28-7.9v-20.46h5.22v20.48
			c0,7.57-5.46,13.12-12.48,13.12S821.49,234.58,821.49,227.01z"/>
		<path class="st0" d="M884.75,205.81v33.7h-5.18v-18.29l-10.95,17.74h-0.04l-10.97-17.76v18.31h-5.18v-33.7h0.39l15.78,23.98
			l15.76-23.98H884.75z"/>
		<path class="st0" d="M917.61,206.44v33.64h-0.25l-21.1-22.04v21.51h-5.18v-33.6h0.27l21.06,22v-21.5H917.61z"/>
		<path class="st0" d="M923.94,206.52h5.18v32.98h-5.18V206.52z"/>
		<path class="st0" d="M510.59,281.48h-15.61l-2.25,5.01h-5.61l15.51-33.66h0.31l15.51,33.66h-5.61L510.59,281.48z M508.58,277.04
			l-5.79-12.89l-5.81,12.89H508.58z"/>
		<path class="st0" d="M519.18,280.7l4.09-2.93c1.47,2.58,4.21,4.05,7.39,4.05c3.7,0,6.51-1.78,6.51-4.3c0-3.05-4.34-4.89-8.18-6.55
			c-3.87-1.72-8.16-3.72-8.16-8.9c0-5.4,4.69-9.17,10.62-9.17c4.71,0,8.23,2.27,9.58,5.89l-3.85,2.66
			c-1.02-2.23-3.29-3.48-5.69-3.48c-3.03,0-5.44,1.88-5.44,4.22c0,2.58,3.05,3.5,7.06,5.22c5.22,2.29,9.27,4.81,9.27,10.01
			c0,5.85-5.07,9.62-11.77,9.62C525.17,287.05,521.06,284.51,519.18,280.7z"/>
		<path class="st0" d="M544.89,280.7l4.09-2.93c1.47,2.58,4.22,4.05,7.39,4.05c3.7,0,6.51-1.78,6.51-4.3c0-3.05-4.34-4.89-8.19-6.55
			c-3.87-1.72-8.16-3.72-8.16-8.9c0-5.4,4.69-9.17,10.62-9.17c4.71,0,8.23,2.27,9.58,5.89l-3.85,2.66
			c-1.02-2.23-3.29-3.48-5.69-3.48c-3.03,0-5.44,1.88-5.44,4.22c0,2.58,3.05,3.5,7.06,5.22c5.22,2.29,9.27,4.81,9.27,10.01
			c0,5.85-5.08,9.62-11.77,9.62C550.89,287.05,546.78,284.51,544.89,280.7z"/>
		<path class="st0" d="M570.94,270.04c0-9.41,7.65-17.11,17.04-17.11c9.37,0,17.06,7.69,17.06,17.11c0,9.33-7.69,16.98-17.08,16.98
			C578.59,287.02,570.94,279.37,570.94,270.04z M599.81,270c0-6.53-5.34-11.85-11.85-11.85c-6.51,0-11.81,5.32-11.81,11.85
			c0,6.49,5.3,11.79,11.81,11.79C594.47,281.79,599.81,276.49,599.81,270z"/>
		<path class="st0" d="M608.21,270.02c0-9.29,7.75-17.09,17.02-17.09c4.28,0.06,8.23,1.88,11.46,5.03l-3.01,4.07
			c-2.31-2.31-5.32-3.85-8.55-3.85c-5.97,0-11.68,5.24-11.68,11.85c0,6.65,5.79,11.79,11.7,11.79c3.38,0,6.28-1.68,8.55-3.93
			l2.99,4.17c-2.84,2.8-6.47,4.95-11.38,4.95C615.97,287.02,608.21,279.33,608.21,270.02z"/>
		<path class="st0" d="M640.8,253.51h5.18v32.98h-5.18V253.51z"/>
		<path class="st0" d="M673.09,281.48h-15.61l-2.25,5.01h-5.61l15.51-33.66h0.31l15.51,33.66h-5.61L673.09,281.48z M671.08,277.04
			l-5.79-12.89l-5.81,12.89H671.08z"/>
		<path class="st0" d="M701.18,258.64h-8.84v27.85h-5.2v-27.85h-8.84v-5.14h22.88V258.64z"/>
		<path class="st0" d="M705.29,253.51h5.18v32.98h-5.18V253.51z"/>
		<path class="st0" d="M715.23,270.04c0-9.41,7.65-17.11,17.04-17.11c9.37,0,17.06,7.69,17.06,17.11c0,9.33-7.69,16.98-17.08,16.98
			C722.88,287.02,715.23,279.37,715.23,270.04z M744.1,270c0-6.53-5.34-11.85-11.85-11.85c-6.51,0-11.81,5.32-11.81,11.85
			c0,6.49,5.3,11.79,11.81,11.79C738.76,281.79,744.1,276.49,744.1,270z"/>
		<path class="st0" d="M780.6,253.43v33.64h-0.25l-21.1-22.04v21.51h-5.18v-33.6h0.27l21.06,22v-21.5H780.6z"/>
		<path class="st0" d="M797.64,270.04c0-9.41,7.65-17.11,17.04-17.11c9.37,0,17.06,7.69,17.06,17.11c0,9.33-7.69,16.98-17.08,16.98
			C805.29,287.02,797.64,279.37,797.64,270.04z M826.51,270c0-6.53-5.34-11.85-11.85-11.85c-6.51,0-11.81,5.32-11.81,11.85
			c0,6.49,5.3,11.79,11.81,11.79C821.17,281.79,826.51,276.49,826.51,270z"/>
		<path class="st0" d="M841.66,258.58v8.82h12.48v5.16h-12.48v13.98h-5.18v-33.11h19.64v5.16H841.66z"/>
		<path class="st0" d="M516.34,300.41v33.64h-0.25L495,312.01v21.51h-5.18v-33.6h0.27l21.06,22v-21.5H516.34z"/>
		<path class="st0" d="M522.67,300.49h5.18v32.98h-5.18V300.49z"/>
		<path class="st0" d="M565.52,318.05c0,9.8-7.12,15.98-15.69,15.98c-9.6,0-17.21-7.65-17.21-17c0-9.37,7.65-17.09,17.02-17.09
			c4.15,0.02,8.9,2.03,12.01,5.05l-2.89,4.3c-2.58-2.54-6.06-4.13-9.19-4.13c-6.02,0-11.7,5.03-11.7,11.87
			c0,6.47,5.14,11.79,12.17,11.79c5.67,0,9.92-3.46,9.92-8.49v-0.1h-10.21v-4.75h15.61C565.46,316.23,565.52,317.13,565.52,318.05z"
			/>
		<path class="st0" d="M575.46,305.59v8.45h12.48v5.16h-12.48v9.13h14.47v5.16h-19.64v-32.98h19.64v5.09H575.46z"/>
		<path class="st0" d="M613.43,333.48l-8.88-12.77h-4.05v12.77h-5.18l-0.02-32.98h10.25c6.14,0,11.17,4.73,11.17,10.6
			c0,4.26-2.74,7.96-6.53,9.19l9.6,13.2H613.43z M605.68,316.41c3.11,0.02,5.71-2.5,5.71-5.44c0-3.07-2.64-5.34-5.71-5.34h-5.2
			v10.78H605.68z"/>
		<path class="st0" d="M623.27,300.49h5.18v32.98h-5.18V300.49z"/>
		<path class="st0" d="M655.56,328.46h-15.61l-2.25,5.01h-5.61l15.51-33.66h0.31l15.51,33.66h-5.61L655.56,328.46z M653.55,324.02
			l-5.79-12.89l-5.81,12.89H653.55z"/>
	</g>
</g>
</svg>
